<?xml version="1.0" encoding="utf-8"?>
<!-- Generator: Adobe Illustrator 28.4.1, SVG Export Plug-In . SVG Version: 6.00 Build 0)  -->
<svg version="1.2" baseProfile="tiny"
	 id="svg2" xmlns:svg="http://www.w3.org/2000/svg" xmlns:inkscape="http://www.inkscape.org/namespaces/inkscape" xmlns:sodipodi="http://sodipodi.sourceforge.net/DTD/sodipodi-0.dtd" xmlns:dc="http://purl.org/dc/elements/1.1/" xmlns:rdf="http://www.w3.org/1999/02/22-rdf-syntax-ns#" xmlns:cc="http://creativecommons.org/ns#"
	 xmlns="http://www.w3.org/2000/svg" xmlns:xlink="http://www.w3.org/1999/xlink" x="0px" y="0px" viewBox="0 0 1000 577.5"
	 overflow="visible" xml:space="preserve">
<sodipodi:namedview  bordercolor="#666666" borderopacity="1.0" fit-margin-bottom="0" fit-margin-left="0" fit-margin-right="0" fit-margin-top="0" id="base" inkscape:current-layer="layer1" inkscape:cx="850.2929" inkscape:cy="357.59411" inkscape:document-units="px" inkscape:pageopacity="0.0" inkscape:pageshadow="2" inkscape:window-height="931" inkscape:window-maximized="1" inkscape:window-width="1680" inkscape:window-x="0" inkscape:window-y="1" inkscape:zoom="0.125" pagecolor="#ffffff" showgrid="true">
	
		<inkscape:grid  empspacing="5" enabled="true" id="grid2996" originx="-55.5px" originy="947.50002px" snapvisiblegridlinesonly="true" type="xygrid" visible="true">
		</inkscape:grid>
</sodipodi:namedview>
<g id="layer1" transform="translate(-55.5,-1002.3452)" inkscape:groupmode="layer" inkscape:label="Layer 1">
	<path id="path3078" inkscape:connector-curvature="0" sodipodi:nodetypes="ccccccccccc" fill="#016FD0" d="M55.5,1002.3H1053v318.5
		l-49.4,77.1l49.4,68.7v113.2H55.5v-307.6l30.9-35.5l-30.9-33.9V1002.3z"/>
	<path id="path3082" inkscape:connector-curvature="0" sodipodi:nodetypes="cccccccccccccccccccc" fill="#FFFFFF" d="M249.1,1477.4
		v-156.6H415l17.8,23.2l18.4-23.2H1053v145.8c0,0-15.7,10.6-33.9,10.8H685.8l-20.1-24.7v24.7H600v-42.1c0,0-9,5.9-28.4,5.9h-22.4
		v36.3h-99.5l-17.8-23.7l-18,23.7H249.1z"/>
	
		<path id="path3080" inkscape:connector-curvature="0" sodipodi:nodetypes="cccccccccccccccccccccccccccccccccccccc" fill="#FFFFFF" d="
		M55.5,1202.8l37.4-87.2h64.7l21.2,48.8v-48.8h80.4l12.6,35.3l12.2-35.3h360.9v17.7c0,0,19-17.7,50.1-17.7l117.1,0.4l20.9,48.2
		v-48.6h67.3l18.5,27.7v-27.7h67.9v156.6h-67.9l-17.7-27.8v27.8h-98.8l-9.9-24.7h-26.6l-9.8,24.7h-67c-26.8,0-44-17.4-44-17.4v17.4
		H543.8l-20.1-24.7v24.7H148l-9.9-24.7h-26.5l-9.9,24.7H55.5V1202.8z"/>
	<path id="path3046" inkscape:connector-curvature="0" fill="#016FD0" d="M106.1,1134.9l-50.4,117.3h32.8l9.3-23.5h54.1l9.3,23.5
		h33.6l-50.4-117.3L106.1,1134.9L106.1,1134.9z M124.8,1162.2l16.5,41h-33L124.8,1162.2z"/>
	<path id="path3048" inkscape:connector-curvature="0" sodipodi:nodetypes="cccccccccccccc" fill="#016FD0" d="M198.2,1252.2v-117.3
		l46.7,0.2l27.1,75.6l26.5-75.8h46.3v117.3h-29.3v-86.4l-31.1,86.4h-25.7l-31.2-86.4v86.4H198.2z"/>
	<path id="path3050" inkscape:connector-curvature="0" sodipodi:nodetypes="ccccccccccccc" fill="#016FD0" d="M364.9,1252.2v-117.3
		h95.7v26.2h-66v20.1H459v24.7h-64.5v20.8h66v25.5L364.9,1252.2z"/>
	<path id="path3052" inkscape:connector-curvature="0" fill="#016FD0" d="M477.5,1134.9v117.3h29.3v-41.7h12.3l35.2,41.7h35.8
		l-38.6-43.2c15.8-1.3,32.2-14.9,32.2-36c0-24.7-19.4-38-41-38L477.5,1134.9L477.5,1134.9z M506.8,1161.1h33.5
		c8,0,13.9,6.3,13.9,12.3c0,7.8-7.6,12.3-13.5,12.3h-33.9L506.8,1161.1L506.8,1161.1z"/>
	<path id="path3054" inkscape:connector-curvature="0" sodipodi:nodetypes="ccccc" fill="#016FD0" d="M625.6,1252.2h-29.9v-117.3
		h29.9V1252.2z"/>
	<path id="path3056" inkscape:connector-curvature="0" sodipodi:nodetypes="ccccccccccc" fill="#016FD0" d="M696.6,1252.2h-6.5
		c-31.3,0-50.2-24.6-50.2-58.1c0-34.3,18.8-59.1,58.2-59.1h32.4v27.8H697c-16,0-27.4,12.5-27.4,31.6c0,22.7,13,32.2,31.6,32.2h7.7
		L696.6,1252.2z"/>
	<path id="path3058" inkscape:connector-curvature="0" fill="#016FD0" d="M760.4,1134.9L710,1252.2h32.8l9.3-23.5h54.1l9.3,23.5H849
		l-50.4-117.3L760.4,1134.9L760.4,1134.9z M779,1162.2l16.5,41h-33L779,1162.2L779,1162.2z"/>
	<path id="path3060" inkscape:connector-curvature="0" sodipodi:nodetypes="ccccccccccc" fill="#016FD0" d="M852.4,1252.2v-117.3
		h37.3l47.6,73.7v-73.7h29.3v117.3h-36.1l-48.8-75.6v75.6H852.4z"/>
	<path id="path3062" inkscape:connector-curvature="0" sodipodi:nodetypes="ccccccccccccc" fill="#016FD0" d="M269.2,1457.4v-117.3
		h95.7v26.2h-66v20.1h64.5v24.7h-64.5v20.8h66v25.5L269.2,1457.4z"/>
	<path id="path3064" inkscape:connector-curvature="0" sodipodi:nodetypes="ccccccccccccc" fill="#016FD0" d="M737.9,1457.4v-117.3
		h95.7v26.2h-66v20.1h64.2v24.7h-64.2v20.8h66v25.5L737.9,1457.4z"/>
	<path id="path3066" inkscape:connector-curvature="0" sodipodi:nodetypes="ccccccccccccc" fill="#016FD0" d="M368.6,1457.4
		l46.6-57.9l-47.7-59.4h36.9l28.4,36.7l28.5-36.7h35.5l-47.1,58.6l46.7,58.6h-36.9l-27.6-36.1l-26.9,36.1L368.6,1457.4z"/>
	<path id="path3068" inkscape:connector-curvature="0" fill="#016FD0" d="M499.9,1340.1v117.3H530v-37h30.9
		c26.1,0,45.9-13.9,45.9-40.8c0-22.3-15.5-39.4-42.1-39.4H499.9L499.9,1340.1z M530,1366.6h32.5c8.4,0,14.5,5.2,14.5,13.5
		c0,7.8-6,13.5-14.6,13.5H530V1366.6L530,1366.6z"/>
	<path id="path3072" inkscape:connector-curvature="0" fill="#016FD0" d="M619.4,1340.1v117.3h29.3v-41.7h12.3l35.2,41.7h35.8
		l-38.6-43.2c15.8-1.3,32.2-14.9,32.2-36c0-24.7-19.4-38-41-38L619.4,1340.1L619.4,1340.1z M648.8,1366.3h33.5
		c8,0,13.9,6.3,13.9,12.3c0,7.8-7.6,12.3-13.5,12.3h-33.9V1366.3z"/>
	<path id="path3074" inkscape:connector-curvature="0" sodipodi:nodetypes="ccccccccccccccccc" fill="#016FD0" d="M847.2,1457.4
		v-25.5h58.7c8.7,0,12.4-4.7,12.4-9.8c0-4.9-3.7-9.9-12.4-9.9h-26.5c-23,0-35.9-14-35.9-35.1c0-18.8,11.8-36.9,46-36.9h57.1
		l-12.3,26.4h-49.4c-9.4,0-12.3,5-12.3,9.7c0,4.9,3.6,10.2,10.8,10.2h27.8c25.7,0,36.8,14.6,36.8,33.7c0,20.5-12.4,37.3-38.2,37.3
		H847.2z"/>
	<path id="path3076" inkscape:connector-curvature="0" sodipodi:nodetypes="ccccccccccccccccc" fill="#016FD0" d="M954.8,1457.4
		v-25.5h58.7c8.7,0,12.4-4.7,12.4-9.8c0-4.9-3.7-9.9-12.4-9.9h-26.5c-23,0-35.9-14-35.9-35.1c0-18.8,11.8-36.9,46-36.9h57.1
		l-12.3,26.4h-49.4c-9.4,0-12.3,5-12.3,9.7c0,4.9,3.6,10.2,10.8,10.2h27.8c25.7,0,36.8,14.6,36.8,33.7c0,20.5-12.4,37.3-38.2,37.3
		H954.8z"/>
</g>
</svg>
