<?xml version="1.0" encoding="UTF-8"?><svg id="Layer_2" xmlns="http://www.w3.org/2000/svg" width="119.665" height="39.888" xmlns:xlink="http://www.w3.org/1999/xlink" viewBox="0 0 119.665 39.888"><defs><clipPath id="clippath"><rect y="0" width="119.665" height="39.888" fill="none" stroke-width="0"/></clipPath><clipPath id="clippath-1"><rect width="119.665" height="39.888" fill="none" stroke-width="0"/></clipPath></defs><g id="svg1372"><g id="g1380"><g id="g1382"><g id="g1384"><g clip-path="url(#clippath)"><g id="g1386"><path id="path1392" d="M115.233,39.888H4.432c-2.438,0-4.432-1.994-4.432-4.432V4.432C0,1.994,1.994,0,4.432,0h110.8c2.438,0,4.432,1.994,4.432,4.432v31.024c0,2.438-1.994,4.432-4.432,4.432" fill="#121210" stroke-width="0"/><path id="path1394" d="M115.233,0H4.432C1.994,0,0,1.995,0,4.432v31.024c0,2.438,1.994,4.432,4.432,4.432h110.8c2.438,0,4.432-1.994,4.432-4.432V4.432C119.665,1.995,117.67,0,115.233,0M115.233.709c2.053,0,3.723,1.67,3.723,3.723v31.024c0,2.053-1.67,3.723-3.723,3.723H4.432c-2.053,0-3.723-1.67-3.723-3.723V4.432C.709,2.379,2.379.709,4.432.709h110.8" fill="#a2a2a1" stroke-width="0"/><path id="path1396" d="M94.789,28.808h1.654v-11.081h-1.654v11.081ZM109.686,21.719l-1.896,4.804h-.057l-1.968-4.804h-1.782l2.951,6.715-1.682,3.735h1.725l4.548-10.45h-1.839ZM100.306,27.549c-.542,0-1.298-.271-1.298-.941,0-.856.94-1.183,1.753-1.183.727,0,1.069.157,1.511.37-.129,1.027-1.012,1.753-1.967,1.753M100.506,21.477c-1.198,0-2.438.527-2.952,1.696l1.469.614c.314-.614.898-.813,1.511-.813.855,0,1.725.513,1.739,1.425v.114c-.3-.171-.941-.427-1.725-.427-1.582,0-3.194.87-3.194,2.494,0,1.483,1.298,2.438,2.751,2.438,1.112,0,1.725-.498,2.111-1.083h.057v.855h1.596v-4.249c0-1.967-1.468-3.064-3.364-3.064M90.284,23.068h-2.353v-3.799h2.353c1.237,0,1.939,1.025,1.939,1.9,0,.859-.702,1.899-1.939,1.899M90.241,17.727h-3.963v11.081h1.653v-4.198h2.31c1.833,0,3.635-1.328,3.635-3.442s-1.802-3.441-3.635-3.441M68.63,27.551c-1.143,0-2.099-.956-2.099-2.27,0-1.328.956-2.299,2.099-2.299,1.128,0,2.013.972,2.013,2.299,0,1.314-.885,2.27-2.013,2.27M70.529,22.339h-.057c-.371-.442-1.085-.843-1.985-.843-1.886,0-3.613,1.657-3.613,3.785,0,2.113,1.728,3.756,3.613,3.756.9,0,1.613-.4,1.985-.857h.057v.542c0,1.443-.77,2.213-2.013,2.213-1.014,0-1.643-.728-1.9-1.342l-1.442.6c.414,1,1.514,2.228,3.342,2.228,1.942,0,3.585-1.143,3.585-3.927v-6.769h-1.572v.614ZM73.242,28.808h1.657v-11.082h-1.657v11.082ZM77.341,25.153c-.043-1.457,1.128-2.199,1.971-2.199.658,0,1.214.328,1.399.799l-3.37,1.4ZM82.482,23.896c-.315-.843-1.271-2.4-3.227-2.4-1.942,0-3.555,1.528-3.555,3.771,0,2.113,1.599,3.77,3.741,3.77,1.728,0,2.727-1.057,3.142-1.671l-1.285-.857c-.429.628-1.014,1.042-1.857,1.042s-1.442-.386-1.828-1.142l5.041-2.086-.171-.428ZM42.321,22.654v1.599h3.827c-.114.9-.414,1.557-.87,2.013-.558.558-1.429,1.171-2.956,1.171-2.357,0-4.199-1.899-4.199-4.256s1.842-4.255,4.199-4.255c1.271,0,2.199.499,2.884,1.142l1.128-1.127c-.957-.914-2.228-1.614-4.013-1.614-3.227,0-5.941,2.628-5.941,5.855s2.713,5.856,5.941,5.856c1.742,0,3.056-.572,4.084-1.643,1.057-1.057,1.386-2.541,1.386-3.741,0-.371-.029-.714-.086-.999h-5.383ZM52.14,27.551c-1.142,0-2.127-.942-2.127-2.284,0-1.357.986-2.285,2.127-2.285s2.128.928,2.128,2.285c0,1.342-.986,2.284-2.128,2.284M52.14,21.496c-2.085,0-3.784,1.586-3.784,3.771,0,2.17,1.699,3.77,3.784,3.77s3.785-1.6,3.785-3.77c0-2.185-1.7-3.771-3.785-3.771M60.396,27.551c-1.143,0-2.128-.942-2.128-2.284,0-1.357.986-2.285,2.128-2.285s2.127.928,2.127,2.285c0,1.342-.985,2.284-2.127,2.284M60.396,21.496c-2.085,0-3.784,1.586-3.784,3.771,0,2.17,1.699,3.77,3.784,3.77s3.784-1.6,3.784-3.77c0-2.185-1.699-3.771-3.784-3.771" fill="#fff" stroke-width="0"/><path id="path1398" d="M18.364,19.434l-9.437,10.016s0,.004.002.006c.29,1.088,1.283,1.888,2.461,1.888.472,0,.914-.128,1.293-.351l.03-.018,10.623-6.129-4.972-5.412" fill="#ea3432" stroke-width="0"/><path id="path1400" d="M27.911,17.728l-.009-.006-4.586-2.658-5.167,4.598,5.185,5.184,4.562-2.632c.799-.433,1.343-1.276,1.343-2.247,0-.966-.536-1.805-1.328-2.238" fill="#f4b61a" stroke-width="0"/><path id="path1402" d="M8.926,10.439c-.057.209-.087.429-.087.656v17.7c0,.227.03.447.088.655l9.761-9.76-9.762-9.25" fill="#5b78bb" stroke-width="0"/><path id="path1404" d="M18.433,19.945l4.884-4.883-10.61-6.152c-.386-.231-.836-.364-1.317-.364-1.179,0-2.173.802-2.463,1.891,0,0,0,.002,0,.003l9.508,9.506" fill="#3cad49" stroke-width="0"/></g></g></g><g id="g1406"><g clip-path="url(#clippath-1)"><g id="g1408"><path id="path1414" d="M38.78,13.055c.627,0,1.114-.173,1.461-.52.347-.347.521-.826.521-1.438s-.174-1.091-.521-1.438-.834-.521-1.461-.521h-.895v3.917h.895ZM37.038,8.336h1.766c.571,0,1.068.116,1.492.347.424.231.751.556.98.975.229.419.343.898.343,1.438s-.114,1.019-.343,1.438c-.229.419-.555.744-.98.975-.424.231-.921.347-1.492.347h-1.766v-5.522" fill="#fff" stroke-width="0"/><path id="path1416" d="M42.721,8.336h.848v5.522h-.848v-5.522" fill="#fff" stroke-width="0"/><path id="path1418" d="M45.343,13.58c-.365-.267-.62-.643-.764-1.126l.802-.324c.082.308.229.561.44.756.211.195.465.293.764.293.277,0,.513-.072.705-.216.193-.144.289-.342.289-.594,0-.231-.085-.423-.255-.575-.17-.152-.463-.3-.879-.443l-.347-.123c-.375-.134-.688-.32-.937-.559-.249-.239-.374-.556-.374-.953,0-.272.073-.524.22-.756.147-.231.352-.414.617-.548.265-.134.564-.201.899-.201.478,0,.861.117,1.149.351.288.234.483.498.586.791l-.764.324c-.051-.185-.159-.345-.324-.478-.165-.134-.378-.2-.64-.2-.252,0-.465.067-.64.2-.175.134-.262.303-.262.509,0,.19.078.348.235.474.157.126.4.245.729.359l.355.123c.473.165.838.378,1.095.64.257.262.385.612.385,1.049,0,.36-.091.662-.274.906-.182.244-.416.425-.702.544-.285.118-.577.177-.875.177-.458,0-.869-.134-1.234-.401" fill="#fff" stroke-width="0"/><path id="path1420" d="M51.458,10.912c.283,0,.51-.089.683-.266.172-.177.258-.384.258-.621s-.086-.443-.258-.621c-.172-.177-.4-.266-.683-.266h-1.072v1.774h1.072ZM49.538,8.336h1.897c.329,0,.631.072.906.216.275.144.493.345.656.601.162.257.243.548.243.872s-.081.614-.243.871c-.162.257-.381.458-.656.601-.275.144-.577.216-.906.216h-1.049v2.144h-.848v-5.522" fill="#fff" stroke-width="0"/><path id="path1422" d="M57.832,12.913c.306-.177.548-.424.725-.74.177-.316.266-.675.266-1.076s-.089-.76-.266-1.076-.419-.563-.725-.74c-.306-.177-.644-.266-1.014-.266s-.708.089-1.014.266c-.306.177-.547.424-.725.74-.177.316-.266.675-.266,1.076s.089.759.266,1.076c.177.316.419.563.725.74.306.177.644.266,1.014.266s.708-.089,1.014-.266ZM55.36,13.595c-.437-.257-.78-.605-1.03-1.045-.25-.44-.374-.924-.374-1.454s.124-1.014.374-1.454c.249-.44.592-.788,1.03-1.045.437-.257.923-.386,1.457-.386s1.019.129,1.454.386.776.605,1.026,1.045c.249.44.374.924.374,1.454s-.125,1.014-.374,1.454c-.25.44-.591.788-1.026,1.045s-.919.385-1.454.385-1.021-.128-1.457-.385" fill="#fff" stroke-width="0"/><path id="path1424" d="M60.766,8.336h1.003l2.499,4.057h.046l-.046-1.064v-2.992h.841v5.522h-.879l-2.622-4.265h-.046l.046,1.064v3.2h-.841v-5.522" fill="#fff" stroke-width="0"/><path id="path1426" d="M66.504,8.336h.848v5.522h-.848v-5.522" fill="#fff" stroke-width="0"/><path id="path1428" d="M70.899,13.071c.267,0,.482-.081.644-.243.162-.162.243-.356.243-.582s-.084-.422-.25-.586c-.167-.165-.39-.247-.667-.247h-1.28v1.658h1.311ZM70.768,10.657c.257,0,.463-.078.617-.235.154-.157.231-.338.231-.543s-.076-.384-.227-.536c-.152-.152-.348-.227-.59-.227h-1.211v1.542h1.18ZM68.74,8.336h2.067c.293,0,.566.064.817.193.252.129.451.305.598.528.147.224.22.472.22.744s-.068.51-.205.713c-.136.203-.317.359-.544.467v.039c.288.098.517.26.687.486.169.226.254.493.254.802,0,.303-.078.572-.235.806s-.368.416-.632.548c-.265.131-.554.197-.867.197h-2.159v-5.522" fill="#fff" stroke-width="0"/><path id="path1430" d="M73.753,8.336h.848v5.522h-.848v-5.522" fill="#fff" stroke-width="0"/><path id="path1432" d="M75.997,8.336h.848v4.72h2.375v.802h-3.223v-5.522" fill="#fff" stroke-width="0"/><path id="path1434" d="M80.115,8.336h3.347v.802h-2.499v1.558h2.252v.802h-2.252v1.558h2.499v.802h-3.347v-5.522" fill="#fff" stroke-width="0"/><path id="path1436" d="M86.693,13.58c-.365-.267-.62-.643-.763-1.126l.802-.324c.082.308.229.561.44.756.211.195.465.293.764.293.277,0,.513-.072.706-.216.193-.144.289-.342.289-.594,0-.231-.085-.423-.255-.575-.17-.152-.463-.3-.879-.443l-.347-.123c-.375-.134-.688-.32-.937-.559-.249-.239-.374-.556-.374-.953,0-.272.073-.524.22-.756.147-.231.352-.414.617-.548.265-.134.564-.201.898-.201.478,0,.861.117,1.149.351.288.234.483.498.586.791l-.764.324c-.051-.185-.159-.345-.324-.478-.164-.134-.378-.2-.64-.2-.252,0-.465.067-.64.2-.175.134-.262.303-.262.509,0,.19.078.348.235.474.157.126.4.245.729.359l.355.123c.473.165.838.378,1.095.64.257.262.386.612.386,1.049,0,.36-.091.662-.274.906-.182.244-.416.425-.702.544-.285.118-.577.177-.875.177-.458,0-.869-.134-1.234-.401" fill="#fff" stroke-width="0"/><path id="path1438" d="M91.748,13.703c-.316-.185-.56-.447-.733-.787-.172-.339-.258-.733-.258-1.18v-3.401h.84v3.447c0,.416.108.753.324,1.01.216.257.522.386.918.386.401,0,.709-.128.925-.386.216-.257.324-.594.324-1.01v-3.447h.841v3.401c0,.442-.085.833-.255,1.172-.17.339-.411.603-.725.79-.314.188-.684.281-1.111.281-.411,0-.775-.092-1.091-.277" fill="#fff" stroke-width="0"/></g></g></g></g></g></g></svg>